<svg xmlns="http://www.w3.org/2000/svg" viewBox="0 0 61.6 61.6"><defs><style>.cls-1{fill:#f5f5f5;}</style></defs><title>WHITEsAsset 2</title><g id="Layer_2" data-name="Layer 2"><g id="Layer_2-2" data-name="Layer 2"><path class="cls-1" d="M30.8,2.2A27.77,27.77,0,0,1,41.91,4.5,28.29,28.29,0,0,1,51,10.78a29.47,29.47,0,0,1,6.15,9.34,30.11,30.11,0,0,1-3.27,28.82,29.17,29.17,0,0,1-6.19,6.35,28.42,28.42,0,0,1-7,3.88v-.89c0-1.64,0-4.1,0-6.93A12.27,12.27,0,0,0,40,47.15C45.11,46,52.65,42.51,52.65,29.91a14.46,14.46,0,0,0-2.92-9,14.51,14.51,0,0,0-.7-8.66l-.37-1-1-.33a4.48,4.48,0,0,0-1.37-.18c-1.58,0-4.25.54-8.18,3.11a30.43,30.43,0,0,0-7.3-.91h0a30.34,30.34,0,0,0-7.3.91c-3.93-2.57-6.6-3.12-8.18-3.12a4.33,4.33,0,0,0-1.37.19l-1,.33-.37,1a14.52,14.52,0,0,0-.7,8.66,14.52,14.52,0,0,0-2.92,9c0,6.82,2.2,11,5,13.54a7.66,7.66,0,0,0-4.29-1.79H9.51c-1.8,0-3.07.74-3.46,2-.65,2,1.35,3.44,2,3.9l.07.08.21.08a6.78,6.78,0,0,1,2.32,3.37,8.3,8.3,0,0,0,1.87,3.05A29.59,29.59,0,0,1,2.2,31.58,29.84,29.84,0,0,1,4.45,20.13a29.09,29.09,0,0,1,6.15-9.34,28.44,28.44,0,0,1,9.09-6.28A27.78,27.78,0,0,1,30.8,2.2M14.4,43.82a16.84,16.84,0,0,0,7.19,3.37,9.56,9.56,0,0,0-.29.95,5.81,5.81,0,0,1-1.61.25,3.9,3.9,0,0,1-3.52-2.32,8.64,8.64,0,0,0-1.77-2.24M14.9,56A10.61,10.61,0,0,0,20,57.21l.92,0c0,.38,0,.76,0,1.09s0,.63,0,.89A27.67,27.67,0,0,1,14.9,56M30.8,0C13.79,0,0,14.15,0,31.58a31.52,31.52,0,0,0,21.06,30,2.41,2.41,0,0,0,.52.05A1.49,1.49,0,0,0,23.17,60c0-.76,0-2.74,0-5.38A14.08,14.08,0,0,1,20,55c-5.93,0-7.27-4.61-7.27-4.61-1.4-3.64-3.42-4.65-3.42-4.65-2.68-1.88,0-2,.19-2h0c3.09.27,4.72,3.29,4.72,3.29a6.06,6.06,0,0,0,5.44,3.47,8.66,8.66,0,0,0,3.52-.82,6.82,6.82,0,0,1,2-4.22c-6.83-.8-14-3.51-14-15.61a12.36,12.36,0,0,1,3.16-8.47,11.63,11.63,0,0,1,.3-8.36,2.56,2.56,0,0,1,.69-.07c1.11,0,3.63.43,7.78,3.31a28.63,28.63,0,0,1,15.43,0C42.65,13.45,45.17,13,46.28,13a2.56,2.56,0,0,1,.69.07,11.63,11.63,0,0,1,.3,8.36,12.41,12.41,0,0,1,3.16,8.47c0,12.13-7.2,14.79-14.07,15.58,1.1,1,2.09,2.9,2.09,5.84,0,4.22,0,7.63,0,8.66A1.48,1.48,0,0,0,40,61.59a2.66,2.66,0,0,0,.55-.05A31.49,31.49,0,0,0,61.6,31.58C61.6,14.15,47.81,0,30.8,0Z"/></g></g></svg>