<svg xmlns="http://www.w3.org/2000/svg" viewBox="0 0 122.63 85.28"><defs><style>.cls-1{fill:#f5f5f5;}</style></defs><title>WHITEsAsset 9</title><g id="Layer_2" data-name="Layer 2"><g id="Layer_2-2" data-name="Layer 2"><path class="cls-1" d="M19.47,85.28H0V.12H14.84Q30.9.12,39.05,6T47.2,22.63Q47.2,34.8,37,40.51q14.84,5.6,14.84,21,0,10.95-8,17.34T19.47,85.28Zm0-3.65a55.57,55.57,0,0,0,10.46-.91,35.59,35.59,0,0,0,9.06-3,15.75,15.75,0,0,0,6.75-6.27,19.1,19.1,0,0,0,2.43-9.85q0-13-12.53-17.64l-7.3-2.68,6.81-3.89q8.4-4.62,8.39-14.72,0-18.86-28.71-18.86H3.65V81.63Z"/><path class="cls-1" d="M72.63,81.63H117.4L91.61,10.71,64.48,85.28H60.59L91.61,0l31,85.28h-50Z"/></g></g></svg>