<svg xmlns="http://www.w3.org/2000/svg" xmlns:xlink="http://www.w3.org/1999/xlink" viewBox="0 0 429.29 459.22"><defs><style>.cls-1{fill:url(#linear-gradient);}.cls-2{fill:url(#linear-gradient-2);}.cls-3{fill:url(#linear-gradient-3);}.cls-4{fill:url(#linear-gradient-4);}.cls-5{fill:url(#linear-gradient-5);}.cls-6{fill:url(#linear-gradient-6);}.cls-7{fill:url(#linear-gradient-7);}.cls-8{fill:url(#linear-gradient-8);}.cls-9{fill:url(#linear-gradient-9);}</style><linearGradient id="linear-gradient" x1="-4650.3" y1="-1169.47" x2="-4578.58" y2="-1169.47" gradientTransform="matrix(-0.64, -0.18, -0.24, 0.67, -3204.64, 248.51)" gradientUnits="userSpaceOnUse"><stop offset="0" stop-color="#c0292f"/><stop offset="1" stop-color="#f05f6b"/></linearGradient><linearGradient id="linear-gradient-2" x1="117.71" y1="256.05" x2="84.63" y2="275.14" gradientUnits="userSpaceOnUse"><stop offset="0" stop-color="#22b89f"/><stop offset="0.21" stop-color="#25b9a0"/><stop offset="0.39" stop-color="#30bba5"/><stop offset="0.56" stop-color="#41c0ac"/><stop offset="0.72" stop-color="#5ac6b6"/><stop offset="0.88" stop-color="#7acdc2"/><stop offset="1" stop-color="#99d5cf"/></linearGradient><linearGradient id="linear-gradient-3" x1="79.91" y1="162.24" x2="201.04" y2="162.24" xlink:href="#linear-gradient-2"/><linearGradient id="linear-gradient-4" x1="150.36" y1="195.54" x2="256.73" y2="195.54" gradientTransform="matrix(1, 0, 0, 1, 0, 0)" xlink:href="#linear-gradient"/><linearGradient id="linear-gradient-5" x1="-1496.17" y1="5754.44" x2="-1751.61" y2="5544.61" gradientTransform="matrix(0.77, 0.63, 0.63, -0.77, -2067.18, 5775.64)" gradientUnits="userSpaceOnUse"><stop offset="0" stop-color="#22b89f"/><stop offset="0.42" stop-color="#24b8a0"/><stop offset="0.58" stop-color="#2bbaa3"/><stop offset="0.7" stop-color="#37bda7"/><stop offset="0.79" stop-color="#48c1ae"/><stop offset="0.87" stop-color="#5ec7b7"/><stop offset="0.94" stop-color="#79cdc2"/><stop offset="1" stop-color="#99d5cf"/></linearGradient><linearGradient id="linear-gradient-6" x1="-4006.31" y1="-39.51" x2="-4078.41" y2="-55.64" gradientTransform="matrix(-0.83, -0.2, -0.36, 0.91, -3310.91, -466.37)" xlink:href="#linear-gradient-2"/><linearGradient id="linear-gradient-7" x1="183.73" y1="348.22" x2="183.73" y2="261.4" xlink:href="#linear-gradient-2"/><linearGradient id="linear-gradient-8" x1="258.48" y1="289.24" x2="223.87" y2="254.63" xlink:href="#linear-gradient-2"/><linearGradient id="linear-gradient-9" x1="199.51" y1="286.14" x2="344.77" y2="286.14" gradientTransform="matrix(1, 0, 0, 1, 0, 0)" xlink:href="#linear-gradient"/></defs><title>WHITEsAsset 1</title><g id="Layer_2" data-name="Layer 2"><g id="Layer_2-2" data-name="Layer 2"><path class="cls-1" d="M11.32,289.77c9.85-6,33.06-7.14,49.59-3.54L49.26,307.46l-47.11,15A1.65,1.65,0,0,1,0,320.58C1.47,313.2,5.84,293.12,11.32,289.77Z"/><polygon class="cls-2" points="98.71 299.52 79.91 190.58 150.36 324.48 98.71 299.52"/><path class="cls-3" d="M79.91,190.58,198,.78a1.65,1.65,0,0,1,3,1.13L150.36,324.48Z"/><path class="cls-4" d="M150.36,324.48,256.6,68.91a1.65,1.65,0,0,0-2.52-2l-71.75,54.37Z"/><path class="cls-5" d="M429.29,459.22s-276-117.57-326.91-94a1.65,1.65,0,0,1-2.31-1.49l-1.36-64.19Z"/><path class="cls-6" d="M58.16,285.68s8.19-4.5,40.56,13.84l1.42,35.29-63.58-1.64a1.65,1.65,0,0,1-1.43-2.4Z"/><polygon class="cls-7" points="150.36 324.48 217.09 261.4 199.51 348.22 150.36 324.48"/><path class="cls-8" d="M217.09,261.4l74.44-55.06a1.65,1.65,0,0,1,2.35,2.25L199.51,348.22Z"/><path class="cls-9" d="M199.51,348.22,344.17,227a1.65,1.65,0,0,0-1.59-2.83l-76.87,26Z"/></g></g></svg>