<svg xmlns="http://www.w3.org/2000/svg" xmlns:xlink="http://www.w3.org/1999/xlink" viewBox="0 0 424.37 867.87"><defs><style>.cls-1{fill:#d5d6d9;}.cls-2{fill:#bcbcbc;}.cls-3{fill:#f7f7f7;}.cls-4{fill:#fff;}.cls-5{fill:url(#linear-gradient);}.cls-6{fill:#3c3e42;}</style><linearGradient id="linear-gradient" x1="227.21" y1="840.33" x2="193.29" y2="781.58" gradientUnits="userSpaceOnUse"><stop offset="0" stop-color="#9e9fa1"/><stop offset="0.11" stop-color="#b6b7b9"/><stop offset="0.25" stop-color="#cdced0"/><stop offset="0.34" stop-color="#d5d6d9"/><stop offset="0.64" stop-color="#d5d6d9"/><stop offset="0.74" stop-color="#c9cacc"/><stop offset="0.95" stop-color="#a8a9ab"/><stop offset="1" stop-color="#9e9fa1"/></linearGradient></defs><title>WHITEsAsset 3</title><g id="Layer_2" data-name="Layer 2"><g id="Layer_2-2" data-name="Layer 2"><path class="cls-1" d="M418.88,184v57.51a1.76,1.76,0,0,0,1.65,1.86h2.2a1.76,1.76,0,0,0,1.65-1.86V184a1.76,1.76,0,0,0-1.65-1.86h-2.2A1.76,1.76,0,0,0,418.88,184Z"/><rect class="cls-2" x="414.68" y="786.73" width="5.81" height="15.2"/><rect class="cls-2" x="414.68" y="62.01" width="5.81" height="15.2"/><path class="cls-1" d="M357.72,0h-296A61.83,61.83,0,0,0,0,62V805.88a61.83,61.83,0,0,0,61.68,62h296c34.06,0,61.67-27.75,62.78-62V62C419.39,27.75,391.78,0,357.72,0Zm52.61,801.33a55.65,55.65,0,0,1-55.51,55.79H64.95A55.65,55.65,0,0,1,9.44,801.33V63.64A55.65,55.65,0,0,1,64.95,7.85H354.82a55.65,55.65,0,0,1,55.51,55.79Z"/><path class="cls-3" d="M383.5,862.22H36.32a30,30,0,0,1-30-30V35.86a30,30,0,0,1,30-30H383.5A31.18,31.18,0,0,1,414.68,37V831A31.18,31.18,0,0,1,383.5,862.22Z"/><rect class="cls-4" x="23.72" y="106.58" width="373.52" height="650.82"/><circle class="cls-5" cx="210.25" cy="810.95" r="33.91"/><circle class="cls-3" cx="210.25" cy="810.95" r="30.04"/><ellipse class="cls-6" cx="209.28" cy="29.08" rx="5.81" ry="5.8"/><path class="cls-6" d="M239.24,58.11h-58a4.66,4.66,0,0,1-4.66-4.66h0a4.66,4.66,0,0,1,4.66-4.66h58a4.66,4.66,0,0,1,4.66,4.66h0A4.66,4.66,0,0,1,239.24,58.11Z"/><rect class="cls-2" x="414.68" y="790.61" width="5.81" height="15.2"/><rect class="cls-2" x="414.68" y="65.88" width="5.81" height="15.2"/><circle class="cls-6" cx="145.33" cy="54.26" r="7.75"/></g></g></svg>