<svg xmlns="http://www.w3.org/2000/svg" viewBox="0 0 414.44 209"><defs><style>.cls-1{fill:#f8f8f8;}</style></defs><title>WHITEsAsset 10</title><g id="Layer_2" data-name="Layer 2"><g id="Layer_2-2" data-name="Layer 2"><path class="cls-1" d="M411.53,80.61A94.25,94.25,0,0,0,393.31,40.9a111.61,111.61,0,0,0-28.42-25.5A99.76,99.76,0,0,0,317.53.09a129.44,129.44,0,0,0-29.15,2.19,99.9,99.9,0,0,0-43.72,21.13A155.34,155.34,0,0,0,229,38.71c-10.93,12-21.5,24-32.43,35.71-15.67,17.12-31.33,34.25-46.64,51.37-6.56,6.92-12.75,14.21-19.31,20.77a47.83,47.83,0,0,1-40.44,14.57,45.91,45.91,0,0,1-26.6-11.29A58.26,58.26,0,0,1,46.09,124.7,63.85,63.85,0,0,1,43.9,91.54a54.2,54.2,0,0,1,27-38.62,48.43,48.43,0,0,1,18.95-6.19c5.1-.36,10.2-.36,15.3,1.09a49.08,49.08,0,0,1,22.22,10.93c2.19,1.82,4,3.64,5.83,5.47A20,20,0,0,0,159.4,66.4c10.57-8,12.39-23.32,4.37-33.88a5,5,0,0,1-1.09-1.46c-6.19-6.56-12.75-12.39-20.4-16.76A87.59,87.59,0,0,0,94.91.46,92.42,92.42,0,0,0,46.45,14.66a98.56,98.56,0,0,0-27,26.6A104.12,104.12,0,0,0,.55,93.73a92.12,92.12,0,0,0,0,20,149.29,149.29,0,0,0,4,22.22A101.14,101.14,0,0,0,52.65,197.2a78.36,78.36,0,0,0,35,10.57,106.15,106.15,0,0,0,21.5-.73,100.36,100.36,0,0,0,25.14-7.65,92.18,92.18,0,0,0,26.6-19.31c11.29-11.66,22.22-23.68,33.16-35.34,2.55-2.91,5.1-5.47,8-8.38s5.47-2.55,8,.73a45.34,45.34,0,0,1,3.64,7.29,102.19,102.19,0,0,0,63,59,107.84,107.84,0,0,0,21.5,4.74,86.11,86.11,0,0,0,16.76.73,108.48,108.48,0,0,0,18.58-2.55,105.05,105.05,0,0,0,39.35-18.22,107,107,0,0,0,30.6-36.8,93,93,0,0,0,10.93-44.09A160.61,160.61,0,0,0,411.53,80.61Zm-102,81.25c-31.7-.36-57.57-26.6-57.2-58.3s26.6-57.57,58.3-57.2a57.93,57.93,0,0,1,57.2,57.93c0,32.06-25.87,57.57-58.3,57.57Z"/></g></g></svg>